<?xml version="1.0" encoding="utf-8"?>
<!-- Generator: Adobe Illustrator 23.0.6, SVG Export Plug-In . SVG Version: 6.00 Build 0)  -->
<svg version="1.1" id="Calque_1" xmlns="http://www.w3.org/2000/svg" xmlns:xlink="http://www.w3.org/1999/xlink" x="0px" y="0px"
	 viewBox="0 0 1066.7 1066.7" style="enable-background:new 0 0 1066.7 1066.7;" xml:space="preserve">
<style type="text/css">
	.st0{fill-rule:evenodd;clip-rule:evenodd;fill:#FFFFFF;}
</style>
<path class="st0" d="M89.6,183.3c0,16.2-13.1,29.3-29.3,29.3c-16.2,0-29.3-13.1-29.3-29.3v-123C31,44.1,44.1,31,60.3,31h123
	c16.2,0,29.3,13.1,29.3,29.3c0,16.2-13.1,29.3-29.3,29.3H89.6V183.3z M493.9,812.2c-16.2,0-29.3-13.1-29.3-29.3
	c0-16.2,13.1-29.3,29.3-29.3h25.4c16.2,0,29.3,13.1,29.3,29.3c0,16.2-13.1,29.3-29.3,29.3H493.9z M515.4,421.6
	c0,16.2-13.1,29.3-29.3,29.3c-16.2,0-29.3-13.1-29.3-29.3v-25.4c0-16.2,13.1-29.3,29.3-29.3c16.2,0,29.3,13.1,29.3,29.3V421.6z
	 M695,749.7c-16.2,0-29.3-13.1-29.3-29.3c0-16.2,13.1-29.3,29.3-29.3h25.4c16.2,0,29.3,13.1,29.3,29.3c0,16.2-13.1,29.3-29.3,29.3
	H695z M90.6,560.3h136.3c-0.4,1.9-0.6,3.9-0.6,5.9V654c0,16.2,13.1,29.3,29.3,29.3c16.2,0,29.3-13.1,29.3-29.3v-87.9
	c0-2-0.2-4-0.6-5.9h258.4v33.2H388.4c-16.2,0-29.3,13.1-29.3,29.3c0,16.2,13.1,29.3,29.3,29.3H572c16.2,0,29.3-13.1,29.3-29.3v-62.5
	h109.4v85.9c0,16.2,13.1,29.3,29.3,29.3c16.2,0,29.3-13.1,29.3-29.3v-85.9h202.1c16.2,0,29.3-13.1,29.3-29.3
	c0-16.2-13.1-29.3-29.3-29.3H837.6V445h29.3c16.2,0,29.3-13.1,29.3-29.3c0-16.2-13.1-29.3-29.3-29.3H720.4
	c-16.2,0-29.3,13.1-29.3,29.3c0,16.2,13.1,29.3,29.3,29.3H779v56.6H601.3v-76.2c0-16.2-13.1-29.3-29.3-29.3
	c-16.2,0-29.3,13.1-29.3,29.3v76.2H90.6c-16.2,0-29.3,13.1-29.3,29.3C61.3,547.2,74.4,560.3,90.6,560.3z M597.4,200.9
	c0-16.2,13.1-29.3,29.3-29.3c16.2,0,29.3,13.1,29.3,29.3v154.3c0,16.2-13.1,29.3-29.3,29.3c-16.2,0-29.3-13.1-29.3-29.3V200.9z
	 M423.6,212.6H490v-11.7c0-16.2,13.1-29.3,29.3-29.3c16.2,0,29.3,13.1,29.3,29.3v97.7c0,16.2-13.1,29.3-29.3,29.3
	c-16.2,0-29.3-13.1-29.3-29.3v-27.3h-66.4v13.7c0,16.2-13.1,29.3-29.3,29.3c-16.2,0-29.3-13.1-29.3-29.3v-84
	c0-16.2,13.1-29.3,29.3-29.3c16.2,0,29.3,13.1,29.3,29.3V212.6z M189.2,443.1c-16.2,0-29.3-13.1-29.3-29.3
	c0-16.2,13.1-29.3,29.3-29.3H406c16.2,0,29.3,13.1,29.3,29.3c0,16.2-13.1,29.3-29.3,29.3H189.2z M827.9,831.8v29.3
	c0,16.2,13.1,29.3,29.3,29.3c16.2,0,29.3-13.1,29.3-29.3V685.3c0-16.2-13.1-29.3-29.3-29.3c-16.2,0-29.3,13.1-29.3,29.3v87.9h-97.7
	c-16.2,0-29.3,13.1-29.3,29.3c0,16.2,13.1,29.3,29.3,29.3H827.9z M529,890.4h87.9c16.2,0,29.3-13.1,29.3-29.3V710.7
	c0-16.2-13.1-29.3-29.3-29.3c-16.2,0-29.3,13.1-29.3,29.3v121.1H529c-16.2,0-29.3,13.1-29.3,29.3C499.7,877.2,512.8,890.4,529,890.4
	z M366.9,712.6c0-16.2,13.1-29.3,29.3-29.3c16.2,0,29.3,13.1,29.3,29.3v85.9c0,16.2-13.1,29.3-29.3,29.3
	c-16.2,0-29.3-13.1-29.3-29.3V712.6z M189.2,708.7h123c16.2,0,29.3,13.1,29.3,29.3v123c0,16.2-13.1,29.3-29.3,29.3h-123
	c-16.2,0-29.3-13.1-29.3-29.3V738C159.9,721.8,173,708.7,189.2,708.7z M282.9,767.3h-64.5v64.5h64.5V767.3z M749.7,171.6h123
	c16.2,0,29.3,13.1,29.3,29.3v123c0,16.2-13.1,29.3-29.3,29.3h-123c-16.2,0-29.3-13.1-29.3-29.3v-123
	C720.4,184.7,733.5,171.6,749.7,171.6z M843.5,230.2H779v64.5h64.5V230.2z M189.2,171.6c-16.2,0-29.3,13.1-29.3,29.3v123
	c0,16.2,13.1,29.3,29.3,29.3h123c16.2,0,29.3-13.1,29.3-29.3v-123c0-16.2-13.1-29.3-29.3-29.3H189.2z M282.9,230.2v64.5h-64.5v-64.5
	H282.9z M972.4,878.6c0-16.2,13.1-29.3,29.3-29.3c16.2,0,29.3,13.1,29.3,29.3v123c0,16.2-13.1,29.3-29.3,29.3h-123
	c-16.2,0-29.3-13.1-29.3-29.3c0-16.2,13.1-29.3,29.3-29.3h93.7V878.6z M31,878.6v123c0,16.2,13.1,29.3,29.3,29.3h123
	c16.2,0,29.3-13.1,29.3-29.3c0-16.2-13.1-29.3-29.3-29.3H89.6v-93.8c0-16.2-13.1-29.3-29.3-29.3C44.1,849.3,31,862.5,31,878.6z
	 M1031,183.3v-123c0-16.2-13.1-29.3-29.3-29.3h-123c-16.2,0-29.3,13.1-29.3,29.3c0,16.2,13.1,29.3,29.3,29.3h93.7v93.8
	c0,16.2,13.1,29.3,29.3,29.3C1017.9,212.6,1031,199.5,1031,183.3z"/>
</svg>
